<svg width="133" height="72" viewBox="0 0 133 72" fill="none" xmlns="http://www.w3.org/2000/svg">
<g clip-path="url(#clip0_183_1179)">
<path d="M31.0355 55.0635L45.569 70.8254C46.9617 72.3343 48.8329 72.1451 50.2372 70.8254L62.6312 59.5285C64.3079 57.9933 66.7353 56.5504 66.8792 53.8493C67.0232 51.1483 66.8792 48.3548 66.8792 45.6362V36.5125C66.8672 35.525 66.5149 34.5818 65.8974 33.8835C65.2799 33.1852 64.4458 32.7869 63.5726 32.7732H35.9721L39.2904 36.5125C39.2904 31.0532 39.6132 25.4707 39.2904 20.0247C39.1348 17.3852 36.7073 15.7355 35.1201 14.1343L27.4099 6.36987L22.1737 1.08216C21.5418 0.410337 20.707 0.0363159 19.8397 0.0363159C18.9723 0.0363159 18.1376 0.410337 17.5056 1.08216L6.9633 11.2617C5.18161 12.9905 3.33768 14.6622 1.59879 16.4526C1.11632 16.9376 0.73284 17.5354 0.474906 18.2046C0.216971 18.8738 0.0907484 19.5984 0.104978 20.3282C-0.132321 32.0738 0.104978 43.859 0.104978 55.6089V68.3883C0.104978 73.2009 6.71822 73.2273 6.71822 68.3883V19.6067L5.74957 22.2462L22.1737 6.36987H17.5056L33.6535 22.6465L32.6849 20.0071V36.5125C32.697 37.5003 33.0491 38.444 33.6665 39.143C34.2839 39.842 35.118 40.2413 35.9915 40.2561H63.5882L60.2621 36.5125V53.8845L61.2308 51.245L45.569 65.5465H50.2372L35.7114 49.7713C32.6382 46.4368 27.9545 51.7201 31.0433 55.0503L31.0355 55.0635Z" fill="#3A3E85"/>
<path d="M37.8045 22.7874L50.642 6.36994H45.9738L62.3708 24.1247C65.4479 27.4548 70.1316 22.1715 67.0389 18.8458L50.6614 1.08222C49.4321 -0.237504 47.1914 -0.461858 45.9933 1.08222L33.1247 17.4952C30.3121 21.0893 34.9764 26.399 37.7928 22.7742L37.8045 22.7874Z" fill="#3A3E85"/>
<path d="M11.8922 29.5487C11.8922 31.4579 12.6079 33.0064 13.491 33.0064C14.3741 33.0064 15.086 31.4579 15.086 29.5487C15.086 27.6395 14.3702 26.091 13.491 26.091C12.6118 26.091 11.8922 27.6351 11.8922 29.5487Z" fill="#3A3E85"/>
<path d="M26.1651 33.0064C27.046 33.0064 27.76 31.4584 27.76 29.5487C27.76 27.6391 27.046 26.091 26.1651 26.091C25.2842 26.091 24.5701 27.6391 24.5701 29.5487C24.5701 31.4584 25.2842 33.0064 26.1651 33.0064Z" fill="#3A3E85"/>
<path d="M10.8924 36.1034C11.895 36.7556 12.9724 37.2485 14.094 37.5683C16.7538 38.3857 19.531 38.595 22.2633 38.1841C24.5168 37.8525 26.7236 37.1961 28.8298 36.2309C29.1112 36.1292 29.348 35.9105 29.4924 35.619C29.6368 35.3275 29.678 34.985 29.6079 34.6605C29.5254 34.3366 29.3333 34.0626 29.0733 33.8979C28.8133 33.7332 28.5064 33.6911 28.2191 33.7807C25.0873 35.2729 21.7025 35.9639 18.307 35.8042C17.988 35.7822 17.6729 35.7514 17.3539 35.7163L17.1166 35.6723C16.9377 35.6459 16.7587 35.6151 16.5798 35.5799C16.0468 35.4787 15.5178 35.3511 14.9965 35.1972C14.5608 35.0696 14.129 34.92 13.705 34.7573L13.1954 34.5417L12.9658 34.4361C13.102 34.5021 13.1798 34.5285 12.9658 34.4361C12.6503 34.2838 12.3437 34.1089 12.0478 33.9126C10.8107 33.0328 9.67478 35.2324 10.908 36.1122L10.8924 36.1034Z" fill="#3A3E85"/>
<path d="M80.5454 53.9549C81.2262 54.9412 81.6866 56.0986 81.8875 57.329C81.9925 57.9845 82.0742 58.6487 82.1287 59.2778C82.1831 59.9069 82.2065 60.5975 82.2065 61.3014C82.2065 61.9349 82.1792 62.5551 82.1287 63.1622C82.0781 63.7693 81.9925 64.4159 81.8875 65.0978C81.6806 66.3906 81.2222 67.6152 80.5454 68.6831C80.2533 69.114 79.9207 69.5078 79.5534 69.8576C79.1971 70.2029 78.8052 70.4983 78.3864 70.7374C77.58 71.2297 76.6768 71.4839 75.7605 71.4765C74.868 71.4811 73.9866 71.2523 73.1852 70.8078C72.2942 70.3361 71.5272 69.6098 70.9601 68.7007C70.6226 68.2106 70.344 67.6722 70.1315 67.0994C69.9135 66.5154 69.7429 65.9103 69.6219 65.2914C69.5129 64.6359 69.4351 63.9716 69.3807 63.3558C69.3262 62.7399 69.299 62.036 69.299 61.319C69.2978 60.6902 69.3251 60.0618 69.3807 59.4362C69.4351 58.8423 69.5129 58.2132 69.6219 57.5578C69.8093 56.27 70.2684 55.0523 70.9601 54.0077C71.5199 53.1152 72.2672 52.3941 73.1347 51.9093C73.9521 51.4504 74.8518 51.2096 75.7644 51.2055C77.1308 51.1994 78.4551 51.7401 79.5028 52.732C79.8848 53.1002 80.234 53.5098 80.5454 53.9549ZM75.7488 67.5217C76.3475 67.5592 76.9405 67.3737 77.4372 66.9938C77.8324 66.6187 78.1363 66.1357 78.3202 65.5905C78.4132 65.2494 78.4898 64.9028 78.5497 64.5523C78.612 64.1872 78.6587 63.8089 78.6976 63.4086C78.7365 63.0082 78.787 62.6431 78.8026 62.3044C78.8182 61.9657 78.8298 61.6181 78.8298 61.2662C78.8298 60.9143 78.8298 60.5755 78.8298 60.2456C78.8298 59.9157 78.8065 59.5549 78.787 59.159C78.7676 58.7631 78.7053 58.3716 78.6431 57.9977C78.5809 57.6237 78.5031 57.2454 78.4136 56.8715V56.9067C78.2349 56.3207 77.9206 55.7997 77.5033 55.3978C77.1578 55.0674 76.7449 54.8395 76.302 54.7348C75.8591 54.6301 75.4 54.6519 74.9664 54.7982C74.5328 54.9445 74.1383 55.2106 73.8184 55.5726C73.4986 55.9346 73.2636 56.381 73.1347 56.8715C72.906 57.6082 72.7749 58.379 72.7457 59.159C72.7262 59.5549 72.7145 59.9201 72.7067 60.2456C72.699 60.5711 72.7067 60.9143 72.7067 61.2662C72.7067 61.6181 72.7067 62.0316 72.7067 62.3748C72.7067 62.7179 72.7068 63.083 72.7457 63.4789C72.763 64.2148 72.8947 64.9414 73.1347 65.6257C73.2853 66.1654 73.5752 66.6419 73.9672 66.9938C74.4914 67.3919 75.1193 67.5779 75.7488 67.5217Z" fill="#3A3E85"/>
<path d="M88.1039 44.9543V66.9938C88.1039 70.0849 87.4555 71.6319 86.1588 71.6349H85.6492C84.9879 71.6349 84.6572 71.2126 84.6572 70.3679V44.9543H88.1039Z" fill="#3A3E85"/>
<path d="M90.2202 51.4694H94.2698L97.4325 66.0216L100.595 51.4694H104.096L98.7084 71.3973H97.0707C96.1397 71.3973 95.4615 70.5175 95.0361 68.7579L90.2202 51.4694Z" fill="#3A3E85"/>
<path d="M108.34 63.0566C108.665 64.6051 109.268 65.7122 110.149 66.3779C111.06 67.0545 112.129 67.4041 113.219 67.3809C113.775 67.3768 114.329 67.2941 114.868 67.1346C115.405 66.9871 115.927 66.7747 116.424 66.5011C116.926 66.2196 117.334 66.6419 117.657 67.7681C117.98 68.8942 117.953 69.6069 117.471 69.9104C116.705 70.3956 115.89 70.7737 115.043 71.0366C112.983 71.6802 110.785 71.4486 108.866 70.3855C107.886 69.7546 107.078 68.8308 106.531 67.7153C105.94 66.5152 105.564 65.1953 105.423 63.8309C105.229 62.2351 105.171 60.6222 105.248 59.0139C105.294 57.832 105.516 56.6675 105.905 55.5694C106.242 54.6377 106.738 53.7901 107.364 53.0751C107.953 52.421 108.657 51.9131 109.43 51.5838C110.261 51.2354 111.142 51.0624 112.028 51.0735C112.956 51.0536 113.874 51.2827 114.709 51.7422C115.483 52.1748 116.161 52.7987 116.692 53.5678C117.246 54.3814 117.66 55.305 117.914 56.2908C118.191 57.3459 118.33 58.4412 118.326 59.5418C118.326 60.1752 118.326 60.7779 118.303 61.3542C118.283 61.9239 118.238 62.4922 118.167 63.0566H108.34ZM112.094 54.5884C111.28 54.5685 110.482 54.8494 109.822 55.3884C109.161 55.9274 108.674 56.6951 108.434 57.5754C108.266 58.1883 108.208 58.8328 108.263 59.4714H115.537C115.549 58.7023 115.472 57.9347 115.308 57.1882C115.192 56.6355 114.967 56.1197 114.65 55.6793C114.353 55.3064 113.975 55.0274 113.553 54.8699C113.081 54.698 112.59 54.6032 112.094 54.5884Z" fill="#3A3E85"/>
<path d="M121.824 68.7887C121.463 68.2405 121.175 67.6359 120.968 66.9938C120.75 66.3335 120.587 65.6516 120.482 64.957C120.358 64.2486 120.277 63.5313 120.24 62.8103C120.205 62.0844 120.19 61.3938 120.19 60.7383V60.7075C120.225 59.8546 120.3 59.0043 120.415 58.1604C120.527 57.3293 120.702 56.5108 120.941 55.7145C121.143 54.9697 121.436 54.2604 121.812 53.6074C122.168 52.9853 122.628 52.4474 123.166 52.0237C123.979 51.4386 124.925 51.1329 125.889 51.1439C126.507 51.0958 127.128 51.1253 127.741 51.2319C128.347 51.3374 128.946 51.4606 129.534 51.6014L129.561 44.884H132.992V67.5569C132.992 70.0145 132.064 71.2448 130.207 71.2478H127.659C124.931 71.2595 122.985 70.4398 121.824 68.7887ZM127.507 67.205H128.312C129.149 67.205 129.569 66.9014 129.569 66.29V55.0811C129.106 54.9623 128.697 54.8743 128.351 54.8171C128.001 54.7571 127.647 54.7276 127.293 54.7292C126.659 54.7028 126.033 54.8929 125.496 55.2746C125.009 55.6315 124.608 56.1198 124.329 56.6955C124.03 57.3151 123.826 57.9874 123.726 58.6839C123.609 59.4201 123.551 60.1664 123.551 60.9143C123.551 61.4554 123.598 62.0229 123.644 62.6211C123.684 63.1963 123.77 63.7661 123.901 64.3236C124.014 64.854 124.194 65.3636 124.434 65.8369C124.651 66.264 124.978 66.6062 125.371 66.8179C126.049 67.1253 126.779 67.2575 127.507 67.205Z" fill="#3A3E85"/>
</g>
<defs>
<clipPath id="clip0_183_1179">
<rect width="133" height="72" fill="white"/>
</clipPath>
</defs>
</svg>
